<svg width="33" height="11" viewBox="0 0 33 11" fill="none" xmlns="http://www.w3.org/2000/svg">
<path d="M5.44251 11C4.39082 11 3.45744 10.7628 2.64238 10.2884C1.82732 9.81392 1.18315 9.16328 0.709893 8.33641C0.236631 7.496 0 6.54713 0 5.48983C0 4.41898 0.236631 3.47012 0.709893 2.64325C1.18315 1.81639 1.82732 1.17252 2.64238 0.711646C3.45744 0.237215 4.39082 0 5.44251 0C6.48106 0 7.40786 0.237215 8.22292 0.711646C9.05113 1.17252 9.6953 1.81639 10.1554 2.64325C10.6287 3.45656 10.8653 4.40542 10.8653 5.48983C10.8653 6.56069 10.6287 7.50955 10.1554 8.33641C9.6953 9.16328 9.05113 9.81392 8.22292 10.2884C7.40786 10.7628 6.48106 11 5.44251 11ZM5.44251 9.29205C6.11297 9.29205 6.71112 9.13617 7.23696 8.8244C7.77596 8.51263 8.19663 8.07209 8.49899 7.50277C8.80136 6.9199 8.95254 6.24892 8.95254 5.48983C8.95254 4.71719 8.80136 4.05299 8.49899 3.49723C8.19663 2.92791 7.77596 2.48737 7.23696 2.1756C6.71112 1.86383 6.11297 1.70795 5.44251 1.70795C4.77206 1.70795 4.17391 1.86383 3.64806 2.1756C3.12221 2.48737 2.70154 2.92791 2.38603 3.49723C2.07052 4.05299 1.91277 4.71719 1.91277 5.48983C1.91277 6.24892 2.07052 6.9199 2.38603 7.50277C2.70154 8.07209 3.12221 8.51263 3.64806 8.8244C4.17391 9.13617 4.77206 9.29205 5.44251 9.29205Z" fill="#454545"/>
<path d="M21.1711 10.878L17.1286 5.63216L18.6864 4.65619L23.3993 10.878H21.1711ZM13.5989 10.878V0.101663H15.4919V10.878H13.5989ZM14.9201 6.32347V4.65619H18.3709V6.32347H14.9201ZM18.8442 5.71349L17.0892 5.4695L21.0922 0.101663H23.1233L18.8442 5.71349Z" fill="#454545"/>
<path d="M27.2814 10.878V1.30129L27.7547 1.80961H23.4559V0.101663H33V1.80961H28.7209L29.1745 1.30129V10.878H27.2814Z" fill="#454545"/>
</svg>
