<svg width="14" height="16" viewBox="0 0 14 16" fill="none" xmlns="http://www.w3.org/2000/svg">
<path fill-rule="evenodd" clip-rule="evenodd" d="M9.15385 3.37267e-07H6.24156C4.92213 -1.45465e-05 3.87706 -2.20343e-05 3.05917 0.113965C2.21743 0.231264 1.53613 0.478423 0.998839 1.03534C0.461555 1.59227 0.22311 2.29846 0.109947 3.17096C-2.11719e-05 4.01875 -1.40336e-05 5.10201 3.25343e-07 6.46963V10.9767C3.25343e-07 12.37 0.985062 13.5248 2.27267 13.7337C2.37173 14.3023 2.5613 14.7876 2.94241 15.1827C3.37455 15.6306 3.91866 15.8233 4.5649 15.9133C5.18734 16 5.97872 16 6.96058 16H9.19326C10.1751 16 10.9665 16 11.589 15.9133C12.2352 15.8233 12.7793 15.6306 13.2115 15.1827C13.6436 14.7347 13.8295 14.1707 13.9164 13.5009C14 12.8557 14 12.0353 14 11.0176V7.21496C14 6.19724 14 5.37691 13.9164 4.73172C13.8295 4.06187 13.6436 3.49788 13.2115 3.04994C12.8303 2.65491 12.3621 2.4584 11.8136 2.35573C11.6121 1.02106 10.498 3.37267e-07 9.15385 3.37267e-07ZM10.6826 2.24831C10.4652 1.58975 9.86289 1.11628 9.15385 1.11628H6.28205C4.91305 1.11628 3.94047 1.11746 3.20266 1.22029C2.48034 1.32095 2.06418 1.50972 1.76034 1.82467C1.4565 2.13962 1.27437 2.57098 1.17726 3.3197C1.07807 4.08447 1.07692 5.0926 1.07692 6.51163V10.9767C1.07692 11.7117 1.53371 12.336 2.16905 12.5613C2.15383 12.1075 2.15384 11.5942 2.15385 11.0176V7.21496C2.15383 6.19724 2.15382 5.37691 2.2375 4.73172C2.32439 4.06187 2.51026 3.49788 2.94241 3.04994C3.37455 2.60199 3.91866 2.40933 4.5649 2.31927C5.18734 2.23253 5.97872 2.23254 6.96058 2.23256H9.19326C9.74953 2.23255 10.2447 2.23254 10.6826 2.24831ZM3.70391 3.83926C3.9026 3.6333 4.18158 3.49901 4.70839 3.4256C5.2507 3.35002 5.96946 3.34884 7 3.34884H9.15385C10.1844 3.34884 10.9031 3.35002 11.4455 3.4256C11.9723 3.49901 12.2512 3.6333 12.4499 3.83926C12.6487 4.04522 12.7782 4.3344 12.8491 4.88046C12.9219 5.44258 12.9231 6.18759 12.9231 7.25581V10.9767C12.9231 12.0449 12.9219 12.79 12.8491 13.3521C12.7782 13.8982 12.6487 14.1873 12.4499 14.3933C12.2512 14.5993 11.9723 14.7335 11.4455 14.807C10.9031 14.8825 10.1844 14.8837 9.15385 14.8837H7C5.96946 14.8837 5.2507 14.8825 4.70839 14.807C4.18158 14.7335 3.9026 14.5993 3.70391 14.3933C3.50521 14.1873 3.37565 13.8982 3.30483 13.3521C3.23191 12.79 3.23077 12.0449 3.23077 10.9767V7.25581C3.23077 6.18759 3.23191 5.44258 3.30483 4.88046C3.37565 4.3344 3.50521 4.04522 3.70391 3.83926Z" fill="#454545"/>
</svg>
