<svg width="48" height="42" viewBox="0 0 48 42" fill="none" xmlns="http://www.w3.org/2000/svg">
<path fill-rule="evenodd" clip-rule="evenodd" d="M0 2C0 0.89543 0.89543 0 2 0H10.4771L18.0427 24.5882C18.301 25.4274 19.0763 26 19.9543 26H38.322C39.1323 26 39.8625 25.5111 40.1712 24.762L42.104 20.0717L43.9053 13.5149C43.9682 13.2862 44 13.0501 44 12.8128C44 11.3919 42.8481 10.24 41.4272 10.24H24C22.8954 10.24 22 9.34457 22 8.24C22 7.13543 22.8954 6.24 24 6.24H41.4272C45.0572 6.24 48 9.18276 48 12.8128C48 13.4081 47.9201 14.0006 47.7624 14.5746L45.896 21.3684L43.8695 26.286C42.9433 28.5334 40.7528 30 38.322 30H19.9543C17.3203 30 14.9943 28.2821 14.2196 25.7645L7.52285 4H2C0.89543 4 0 3.10457 0 2Z" fill="#F2F2F2"/>
<path d="M22 38C22 40.2091 20.2091 42 18 42C15.7909 42 14 40.2091 14 38C14 35.7909 15.7909 34 18 34C20.2091 34 22 35.7909 22 38Z" fill="#F2F2F2"/>
<path d="M44 38C44 40.2091 42.2091 42 40 42C37.7909 42 36 40.2091 36 38C36 35.7909 37.7909 34 40 34C42.2091 34 44 35.7909 44 38Z" fill="#F2F2F2"/>
</svg>
