<svg width="37" height="33" viewBox="0 0 37 33" fill="none" xmlns="http://www.w3.org/2000/svg">
<path fill-rule="evenodd" clip-rule="evenodd" d="M0.09375 2.33408C0.09375 1.48726 0.770194 0.800781 1.60463 0.800781H8.0086L13.7239 19.6513C13.919 20.2947 14.5047 20.7337 15.168 20.7337H29.0437C29.6558 20.7337 30.2074 20.3589 30.4406 19.7846L31.9008 16.1887L33.2616 11.162C33.309 10.9866 33.3331 10.8056 33.3331 10.6237C33.3331 9.53438 32.4629 8.65128 31.3895 8.65128H18.2243C17.3899 8.65128 16.7134 7.9648 16.7134 7.11798C16.7134 6.27116 17.3899 5.58468 18.2243 5.58468H31.3895C34.1318 5.58468 36.3548 7.84074 36.3548 10.6237C36.3548 11.0801 36.2945 11.5343 36.1754 11.9744L34.7654 17.1828L33.2345 20.953C32.5349 22.6759 30.88 23.8003 29.0437 23.8003H15.168C13.1782 23.8003 11.421 22.4832 10.8358 20.5531L5.77681 3.86738H1.60463C0.770194 3.86738 0.09375 3.1809 0.09375 2.33408Z" fill="white"/>
<path d="M16.7134 29.9335C16.7134 31.6271 15.3605 33.0001 13.6917 33.0001C12.0228 33.0001 10.6699 31.6271 10.6699 29.9335C10.6699 28.2398 12.0228 26.8669 13.6917 26.8669C15.3605 26.8669 16.7134 28.2398 16.7134 29.9335Z" fill="white"/>
<path d="M33.3331 29.9335C33.3331 31.6271 31.9802 33.0001 30.3113 33.0001C28.6425 33.0001 27.2896 31.6271 27.2896 29.9335C27.2896 28.2398 28.6425 26.8669 30.3113 26.8669C31.9802 26.8669 33.3331 28.2398 33.3331 29.9335Z" fill="white"/>
</svg>
