<svg width="266" height="50" viewBox="0 0 266 50" fill="none" xmlns="http://www.w3.org/2000/svg">
<g clip-path="url(#clip0_258_211)">
<path d="M65.2614 11.8174L64.6523 16.0375H71.8505L69.2386 34.5951H73.3016L75.9135 16.0375H83.0544L83.6634 11.8403L65.2614 11.8174Z" fill="white"/>
<path d="M102.299 16.038L102.908 11.8408H86.1494L82.9121 34.5956H99.671L100.28 30.3663H87.5678L88.2913 25.2893H100.554L101.138 21.0784H88.8758L89.587 16.038H102.299Z" fill="white"/>
<path d="M123.897 19.8911C124.563 15.0386 121.444 11.8174 117.075 11.8174H106.627L103.414 34.5951H107.477L108.397 27.951H113.911L117.479 34.5859H122.531L118.497 27.0804C121.195 25.747 123.443 23.0756 123.897 19.8911ZM119.834 19.8911C119.515 22.0355 117.626 23.6942 115.391 23.6942H109.006L110.081 16.0375H116.466C118.73 16.0375 120.173 17.6458 119.834 19.8911Z" fill="white"/>
<path d="M145.81 11.8174L136.817 29.1607L132.73 11.8174H127.555L124.33 34.5951H128.397L130.441 19.9323L133.981 34.5951H138.068L145.732 19.9873L143.689 34.5951H147.752L150.977 11.8174H145.81Z" fill="white"/>
<path d="M165.029 11.332C158.64 11.332 153.175 16.3724 152.198 23.2455C151.238 30.0087 155.325 35.0857 161.689 35.0857C168.054 35.0857 173.474 30.2699 174.463 23.2409C175.477 16.1158 171.385 11.332 165.029 11.332ZM170.396 23.2455C169.787 27.6398 166.509 30.7281 162.298 30.7281C158.178 30.7281 155.652 27.6398 156.261 23.2455C156.899 18.7551 160.267 15.6942 164.436 15.6942C168.606 15.6942 171.038 18.7505 170.396 23.2409V23.2455Z" fill="white"/>
<path d="M186.944 25.5824H193.999C192.719 28.6753 189.911 30.7235 186.453 30.7235C182.329 30.7235 179.831 27.6352 180.445 23.2409C181.082 18.7505 184.45 15.6896 188.571 15.6896C191.62 15.6896 193.709 17.2521 194.346 19.8914H198.789C198.246 14.6632 194.522 11.332 189.18 11.332C182.795 11.332 177.367 16.3724 176.377 23.2455C175.421 30.0133 179.484 35.0903 185.84 35.0903C192.257 35.0903 197.694 30.2745 198.671 23.2455C198.741 22.761 198.77 22.27 198.757 21.7792H187.467L186.944 25.5824Z" fill="white"/>
<path d="M214.811 11.8174H210.282L196.871 34.5951H201.367L204.531 29.2294H215.649L217.284 34.5951H221.813L214.811 11.8174ZM206.971 25.0643L211.819 16.8623L214.345 25.0643H206.971Z" fill="white"/>
<path d="M243.694 19.8911C244.36 15.0386 241.242 11.8174 236.872 11.8174H226.42L223.199 34.5951H227.266L228.194 27.951H233.708L237.277 34.5859H242.329L238.303 27.0804C240.992 25.747 243.228 23.0756 243.694 19.8911ZM239.631 19.8911C239.308 22.0355 237.424 23.6942 235.188 23.6942H228.803L229.874 16.0375H236.259C238.527 16.0375 239.938 17.6458 239.631 19.8911Z" fill="white"/>
<path d="M256.958 11.8174H247.352L244.127 34.5951H253.737C259.108 34.5951 264.941 29.683 265.869 23.1764C266.796 16.4407 262.619 11.8174 256.958 11.8174ZM261.806 23.1764C261.516 25.157 260.606 26.957 259.239 28.2522C257.871 29.5475 256.136 30.2531 254.346 30.2421H248.803L250.806 16.1841H256.349C260.064 16.1796 262.386 19.0434 261.806 23.1764Z" fill="white"/>
<path d="M43.2044 49.945C38.322 50.089 33.4363 49.9207 28.5711 49.441L28.2604 49.4089L27.8517 49.3631L27.6187 49.3356C13.0793 47.6036 -0.491272 41.5735 -0.000768605 23.0159C0.273096 13.4852 6.53928 4.83413 14.5713 1.58999C16.8166 0.652451 19.1794 0.11592 21.5732 0L21.5078 13.3523C20.0714 13.5288 18.6813 14.0275 17.4203 14.8185C17.2977 14.8964 17.1709 14.9743 17.0524 15.0614C16.4824 15.4603 15.9484 15.9207 15.4583 16.436C11.2931 20.757 10.402 28.7711 14.5754 35.5022C14.6898 35.6901 14.8124 35.8733 14.9432 36.0566C15.0086 36.1574 15.0781 36.2537 15.1517 36.3499C23.2041 47.6127 43.2044 49.945 43.2044 49.945Z" fill="white"/>
<path d="M43.2044 49.945C43.2044 49.945 34.0483 49.945 28.5711 49.441L28.2604 49.4089L27.8517 49.3631L27.6187 49.3356C13.0793 47.6036 -0.491272 41.5735 -0.000768605 23.0159C0.273096 13.4852 6.53928 4.83413 14.5713 1.58999C16.8166 0.652451 19.1794 0.11592 21.5732 0L21.5078 13.3523C20.0714 13.5288 18.6813 14.0275 17.4203 14.8185C17.2936 14.8964 17.1709 14.9789 17.0524 15.0614C16.4824 15.4603 15.9484 15.9207 15.4583 16.436C11.2522 20.7707 10.3243 28.8215 14.5754 35.5022C14.6939 35.6901 14.8165 35.8734 14.9432 36.0566C15.0086 36.1574 15.0781 36.2537 15.1517 36.3499C23.2041 47.6127 43.2044 49.945 43.2044 49.945Z" fill="white"/>
<path d="M42.5843 44.0933C41.5829 43.9329 39.3634 43.406 36.8863 42.7782C33.9896 42.0418 31.4015 40.2253 29.5452 37.6259C27.689 35.0265 26.6744 31.798 26.6675 28.4683L26.5898 0.1875H26.6512C30.8529 0.195967 34.8807 2.0699 37.8529 5.39923C40.8252 8.72855 42.5 13.2422 42.5108 17.9523L42.5843 44.0933Z" fill="#E37600"/>
</g>
<defs>
<clipPath id="clip0_258_211">
<rect width="266" height="50" fill="white"/>
</clipPath>
</defs>
</svg>
