<svg width="167" height="32" viewBox="0 0 167 32" fill="none" xmlns="http://www.w3.org/2000/svg">
<g clip-path="url(#clip0_258_169)">
<path d="M40.9722 7.56348L40.5898 10.2644H45.109L43.4692 22.1412H46.02L47.6598 10.2644H52.143L52.5254 7.57814L40.9722 7.56348Z" fill="black"/>
<path d="M64.2244 10.2643L64.6067 7.57812H54.0852L52.0527 22.1412H62.5743L62.9566 19.4344H54.9757L55.4299 16.1852H63.1286L63.4956 13.4901H55.7969L56.2434 10.2643H64.2244Z" fill="black"/>
<path d="M77.7852 12.7306C78.2035 9.62506 76.2454 7.56348 73.5021 7.56348H66.9428L64.9258 22.1412H67.4766L68.054 17.889H71.5159L73.7562 22.1353H76.928L74.3952 17.3318C76.0889 16.4784 77.5003 14.7688 77.7852 12.7306ZM75.2343 12.7306C75.0342 14.1031 73.8486 15.1646 72.4448 15.1646H68.4364L69.1113 10.2644H73.1198C74.5414 10.2644 75.4473 11.2937 75.2343 12.7306Z" fill="black"/>
<path d="M91.5422 7.56348L85.8965 18.6632L83.3302 7.56348H80.0814L78.0566 22.1412H80.61L81.8932 12.757L84.1155 22.1412H86.6817L91.4934 12.7922L90.2103 22.1412H92.7611L94.7859 7.56348H91.5422Z" fill="black"/>
<path d="M103.608 7.25244C99.5968 7.25244 96.1658 10.4782 95.5525 14.8771C94.9494 19.2055 97.5156 22.4548 101.511 22.4548C105.507 22.4548 108.91 19.3727 109.531 14.8741C110.167 10.314 107.598 7.25244 103.608 7.25244ZM106.977 14.8771C106.595 17.6894 104.537 19.6659 101.894 19.6659C99.3069 19.6659 97.7209 17.6894 98.1033 14.8771C98.5036 12.0032 100.618 10.0442 103.236 10.0442C105.853 10.0442 107.38 12.0002 106.977 14.8741V14.8771Z" fill="black"/>
<path d="M117.366 16.3727H121.795C120.992 18.3521 119.229 19.663 117.058 19.663C114.468 19.663 112.9 17.6865 113.285 14.8741C113.686 12.0002 115.8 10.0413 118.387 10.0413C120.301 10.0413 121.613 11.0413 122.013 12.7304H124.803C124.461 9.38441 122.123 7.25244 118.769 7.25244C114.761 7.25244 111.353 10.4782 110.732 14.8771C110.131 19.2085 112.682 22.4577 116.673 22.4577C120.702 22.4577 124.115 19.3756 124.728 14.8771C124.772 14.567 124.79 14.2527 124.782 13.9387H117.694L117.366 16.3727Z" fill="black"/>
<path d="M134.863 7.56348H132.019L123.6 22.1412H126.422L128.409 18.7072H135.389L136.415 22.1412H139.259L134.863 7.56348ZM129.941 16.0415L132.984 10.7922L134.57 16.0415H129.941Z" fill="black"/>
<path d="M152.996 12.7306C153.414 9.62506 151.456 7.56348 148.713 7.56348H142.151L140.129 22.1412H142.682L143.265 17.889H146.727L148.967 22.1353H152.139L149.611 17.3318C151.3 16.4784 152.703 14.7688 152.996 12.7306ZM150.445 12.7306C150.242 14.1031 149.059 15.1646 147.656 15.1646H143.647L144.32 10.2644H148.328C149.752 10.2644 150.638 11.2937 150.445 12.7306Z" fill="black"/>
<path d="M161.323 7.56348H155.292L153.268 22.1412H159.301C162.673 22.1412 166.335 18.9975 166.917 14.8333C167.5 10.5224 164.877 7.56348 161.323 7.56348ZM164.367 14.8333C164.185 16.1009 163.614 17.2528 162.755 18.0818C161.896 18.9108 160.807 19.3623 159.683 19.3553H156.203L157.461 10.3582H160.941C163.273 10.3553 164.731 12.1881 164.367 14.8333Z" fill="black"/>
<path d="M27.1234 31.9648C24.0581 32.057 20.9908 31.9493 17.9363 31.6422L17.7413 31.6217L17.4846 31.5924L17.3384 31.5748C8.21027 30.4663 -0.309612 26.607 -0.0016647 14.7302C0.170273 8.6305 4.1043 3.09384 9.14695 1.0176C10.5566 0.417568 12.04 0.0741888 13.5429 0L13.5018 8.54545C12.6 8.65845 11.7273 8.97758 10.9356 9.48387C10.8586 9.53372 10.7791 9.58358 10.7046 9.63929C10.3468 9.8946 10.0116 10.1893 9.70382 10.5191C7.08883 13.2845 6.52939 18.4135 9.14951 22.7214C9.22137 22.8416 9.29835 22.9589 9.38047 23.0762C9.42153 23.1408 9.46516 23.2023 9.51135 23.2639C14.5668 30.4721 27.1234 31.9648 27.1234 31.9648Z" fill="white"/>
<path d="M27.1234 31.9648C27.1234 31.9648 21.375 31.9648 17.9363 31.6422L17.7413 31.6217L17.4846 31.5924L17.3384 31.5748C8.21027 30.4663 -0.309612 26.607 -0.0016647 14.7302C0.170273 8.6305 4.1043 3.09384 9.14695 1.0176C10.5566 0.417568 12.04 0.0741888 13.5429 0L13.5018 8.54545C12.6 8.65845 11.7273 8.97758 10.9356 9.48387C10.8561 9.53372 10.7791 9.58651 10.7046 9.6393C10.3468 9.8946 10.0116 10.1893 9.70382 10.5191C7.06317 13.2933 6.48063 18.4457 9.14951 22.7214C9.22393 22.8416 9.30092 22.9589 9.38047 23.0762C9.42153 23.1408 9.46516 23.2023 9.51135 23.2639C14.5668 30.4721 27.1234 31.9648 27.1234 31.9648Z" fill="black"/>
<path d="M26.735 28.2198C26.1063 28.1172 24.7128 27.7799 23.1577 27.3782C21.3391 26.9068 19.7142 25.7443 18.5488 24.0807C17.3834 22.4171 16.7465 20.3508 16.7421 18.2198L16.6934 0.120117H16.7319C19.3698 0.125536 21.8985 1.32485 23.7645 3.45562C25.6306 5.58639 26.682 8.4751 26.6888 11.4896L26.735 28.2198Z" fill="#E37600"/>
</g>
<defs>
<clipPath id="clip0_258_169">
<rect width="167" height="32" fill="white"/>
</clipPath>
</defs>
</svg>
