<svg width="18" height="18" viewBox="0 0 18 18" fill="none" xmlns="http://www.w3.org/2000/svg">
<path fill-rule="evenodd" clip-rule="evenodd" d="M9 17C13.4183 17 17 13.4183 17 9C17 4.58172 13.4183 1 9 1C4.58172 1 1 4.58172 1 9C1 13.4183 4.58172 17 9 17ZM9 18C13.9706 18 18 13.9706 18 9C18 4.02944 13.9706 0 9 0C4.02944 0 0 4.02944 0 9C0 13.9706 4.02944 18 9 18Z" fill="#FF0000"/>
<path fill-rule="evenodd" clip-rule="evenodd" d="M17 9C17 13.4183 13.4183 17 9 17C4.58172 17 1 13.4183 1 9C1 4.58172 4.58172 1 9 1C13.4183 1 17 4.58172 17 9ZM8.13846 4L8.41538 10.7847H9.58462L9.87692 4H8.13846ZM8.29231 13.7309C8.48718 13.9103 8.72821 14 9.01538 14C9.30256 14 9.53846 13.9103 9.72308 13.7309C9.90769 13.5515 10 13.339 10 13.0935C10 12.8291 9.90769 12.6119 9.72308 12.4419C9.53846 12.272 9.30256 12.187 9.01538 12.187C8.72821 12.187 8.48718 12.272 8.29231 12.4419C8.09744 12.6119 8 12.8291 8 13.0935C8 13.339 8.09744 13.5515 8.29231 13.7309Z" fill="#FF0000"/>
</svg>
