<svg width="120" height="120" viewBox="0 0 120 120" fill="none" xmlns="http://www.w3.org/2000/svg">
<g clip-path="url(#clip0_258_4169)">
<path d="M60.5 101C92.8087 101 119 97.4183 119 93C119 88.5817 92.8087 85 60.5 85C28.1913 85 2 88.5817 2 93C2 97.4183 28.1913 101 60.5 101Z" fill="#FFC98F"/>
<path fill-rule="evenodd" clip-rule="evenodd" d="M115.482 60.576L99.848 58L91 41.5L102 46L115.482 60.576Z" fill="white" stroke="#E37600" stroke-width="1.5" stroke-linejoin="round"/>
<path fill-rule="evenodd" clip-rule="evenodd" d="M35 46H102V94H35V46Z" fill="white" stroke="#E37600" stroke-width="1.5" stroke-linejoin="round"/>
<path d="M55.324 79.1363C57.7121 79.1363 59.648 77.2004 59.648 74.8123C59.648 72.4242 57.7121 70.4883 55.324 70.4883C52.9359 70.4883 51 72.4242 51 74.8123C51 77.2004 52.9359 79.1363 55.324 79.1363Z" fill="#FFC98F"/>
<path d="M87.7537 79.1363C90.1418 79.1363 92.0777 77.2004 92.0777 74.8123C92.0777 72.4242 90.1418 70.4883 87.7537 70.4883C85.3656 70.4883 83.4297 72.4242 83.4297 74.8123C83.4297 77.2004 85.3656 79.1363 87.7537 79.1363Z" fill="#FFC98F"/>
<path fill-rule="evenodd" clip-rule="evenodd" d="M79.1116 79.1145C77.5736 76.5415 74.7136 74.8125 71.4376 74.8125C68.3076 74.8125 65.5566 76.3915 63.9766 78.7775" fill="white"/>
<path d="M79.1116 79.1145C77.5736 76.5415 74.7136 74.8125 71.4376 74.8125C68.3076 74.8125 65.5566 76.3915 63.9766 78.7775" stroke="#E37600" stroke-width="1.5" stroke-linejoin="round"/>
<path d="M61.8104 68.324C63.0045 68.324 63.9724 67.356 63.9724 66.162C63.9724 64.968 63.0045 64 61.8104 64C60.6164 64 59.6484 64.968 59.6484 66.162C59.6484 67.356 60.6164 68.324 61.8104 68.324Z" fill="#E37600"/>
<path d="M81.2714 68.324C82.4654 68.324 83.4334 67.356 83.4334 66.162C83.4334 64.968 82.4654 64 81.2714 64C80.0773 64 79.1094 64.968 79.1094 66.162C79.1094 67.356 80.0773 68.324 81.2714 68.324Z" fill="#E37600"/>
<path fill-rule="evenodd" clip-rule="evenodd" d="M34.0125 46H101.938L90.9825 41H22.9375L34.0125 46Z" fill="white" stroke="#E37600" stroke-width="1.5" stroke-linejoin="round"/>
<path fill-rule="evenodd" clip-rule="evenodd" d="M35.065 46V94L23 90.368V41L35.065 46Z" fill="white" stroke="#E37600" stroke-width="1.5" stroke-linejoin="round"/>
<path fill-rule="evenodd" clip-rule="evenodd" d="M4 57.078L15.935 63.5L34.732 46L23 41L4 57.078Z" fill="white" stroke="#E37600" stroke-width="1.5" stroke-linejoin="round"/>
</g>
<defs>
<clipPath id="clip0_258_4169">
<rect width="120" height="120" fill="white"/>
</clipPath>
</defs>
</svg>
