<svg width="150" height="160" viewBox="0 0 150 160" fill="none" xmlns="http://www.w3.org/2000/svg">
<path d="M75.0002 85.3875C81.8467 85.3797 88.4105 82.6306 93.2516 77.7434C98.0927 72.8561 100.816 66.2299 100.823 59.3185C99.4304 24.7462 50.5649 24.7561 49.1774 59.3187C49.1848 66.2301 51.9078 72.8563 56.7489 77.7435C61.59 82.6307 68.1538 85.3797 75.0002 85.3875ZM75.0002 38.9661C80.3454 38.9724 85.4698 41.1187 89.2494 44.9341C93.029 48.7496 95.1551 53.9226 95.1612 59.3185C94.2135 86.2567 55.7827 86.2497 54.8389 59.3181C54.8452 53.9223 56.9713 48.7493 60.7509 44.9339C64.5306 41.1185 69.6551 38.9723 75.0002 38.9661ZM149.552 140.037L120.911 96.6714C122.198 94.9091 122.817 92.7396 122.656 90.5562C122.495 88.3727 121.564 86.3198 120.033 84.7694L114.772 79.4573C114.312 78.9572 114.003 78.334 113.883 77.6619C113.764 76.9899 113.838 76.2972 114.096 75.6664C114.355 75.0355 114.788 74.493 115.344 74.1034C115.899 73.7137 116.554 73.4934 117.23 73.4685H124.669C127.08 73.4663 129.391 72.4987 131.095 70.7782C132.8 69.0577 133.759 66.7248 133.761 64.2914V54.3469C133.759 51.9135 132.8 49.5806 131.095 47.8601C129.391 46.1396 127.08 45.172 124.669 45.1698H117.23C116.554 45.1451 115.899 44.9249 115.343 44.5351C114.787 44.1454 114.354 43.6027 114.095 42.9716C113.836 42.3404 113.762 41.6475 113.882 40.9752C114.003 40.3029 114.312 39.6797 114.772 39.1796C117.523 36.197 123.145 32.0991 122.698 27.3791C122.91 21.8035 116.824 18.1531 113.069 13.8568C111.337 12.1885 109.035 11.2578 106.64 11.2581C104.246 11.2584 101.944 12.1896 100.212 13.8584L94.9511 19.1676C94.4559 19.6333 93.8386 19.9455 93.1727 20.0671C92.5067 20.1887 91.8202 20.1145 91.1948 19.8533C90.5695 19.5922 90.0316 19.1552 89.6453 18.5942C89.259 18.0333 89.0405 17.3721 89.0159 16.6894V9.17841C89.0135 6.74537 88.0552 4.41265 86.3512 2.69197C84.6472 0.971293 82.3366 0.00317669 79.9265 0H70.074C67.6637 0.00313139 65.3531 0.971243 63.6491 2.69195C61.9451 4.41266 60.9867 6.74544 60.9844 9.17852V16.6896C60.9598 17.3724 60.7414 18.0336 60.3551 18.5947C59.9689 19.1557 59.431 19.5928 58.8057 19.8541C58.1803 20.1153 57.4937 20.1896 56.8277 20.0682C56.1617 19.9467 55.5443 19.6346 55.049 19.169L49.7884 13.8585C48.0565 12.1893 45.7541 11.2579 43.3597 11.2579C40.9652 11.2579 38.6628 12.1893 36.931 13.8585L29.9673 20.8882C28.272 22.6148 27.3208 24.9475 27.3208 27.3786C27.3208 29.8096 28.272 32.1423 29.9673 33.869L35.2279 39.1796C35.6886 39.6798 35.9973 40.3031 36.1172 40.9753C36.2371 41.6474 36.1632 42.3402 35.9043 42.9713C35.6454 43.6023 35.2124 44.1449 34.6568 44.5347C34.1012 44.9244 33.4464 45.1448 32.7702 45.1697H25.3312C22.9207 45.172 20.6096 46.1395 18.905 47.86C17.2004 49.5806 16.2415 51.9135 16.2389 54.3468V64.2914C16.2415 66.7248 17.2004 69.0577 18.905 70.7782C20.6096 72.4988 22.9208 73.4663 25.3313 73.4685H32.7705C33.4466 73.4931 34.1014 73.7134 34.6571 74.103C35.2128 74.4926 35.6458 75.0351 35.9047 75.6661C36.1636 76.2971 36.2375 76.9899 36.1175 77.662C35.9975 78.3341 35.6887 78.9573 35.2279 79.4573L29.9673 84.7679C28.4357 86.3185 27.5051 88.3717 27.3441 90.5553C27.1831 92.739 27.8023 94.9086 29.0895 96.671L0.44852 140.037C0.128887 140.542 -0.026615 141.135 0.00372733 141.733C0.0340697 142.331 0.248742 142.905 0.617767 143.374C0.986791 143.843 1.49174 144.185 2.0621 144.35C2.63247 144.515 3.23976 144.497 3.79919 144.297L35.2778 132.374L41.4813 157.853C41.6196 158.386 41.9066 158.867 42.3081 159.24C42.7095 159.613 43.2086 159.862 43.746 159.957C44.2834 160.052 44.8366 159.989 45.3397 159.776C45.8429 159.563 46.2749 159.209 46.5845 158.755L73.0771 118.638H76.9236L103.416 158.756C103.726 159.209 104.158 159.563 104.661 159.776C105.164 159.989 105.717 160.052 106.255 159.957C106.792 159.862 107.291 159.613 107.693 159.24C108.094 158.867 108.381 158.385 108.519 157.853L114.722 132.374L146.201 144.297C146.761 144.497 147.368 144.515 147.938 144.35C148.508 144.184 149.013 143.843 149.382 143.374C149.751 142.905 149.966 142.331 149.996 141.733C150.027 141.135 149.871 140.542 149.552 140.037ZM33.9702 88.8103L39.231 83.4982C40.4931 82.2023 41.3494 80.5601 41.6931 78.7762C42.0368 76.9923 41.8528 75.1458 41.1638 73.4668C40.4749 71.7878 39.3117 70.3508 37.8191 69.3347C36.3265 68.3187 34.5706 67.7687 32.7705 67.7533H25.3313C24.422 67.7523 23.5502 67.3873 22.907 66.7383C22.2639 66.0893 21.902 65.2094 21.9006 64.2914V54.3469C21.902 53.4289 22.2639 52.549 22.907 51.9C23.5502 51.2511 24.422 50.8861 25.3313 50.8851H32.7705C34.5594 50.8444 36.2979 50.2795 37.7744 49.2591C39.2509 48.2386 40.4015 46.8068 41.0862 45.138C41.7708 43.4691 41.96 41.6353 41.6305 39.8598C41.301 38.0844 40.4672 36.444 39.2306 35.1385L33.9702 29.8266C33.3299 29.1757 32.9706 28.2957 32.9706 27.3785C32.9706 26.4612 33.3299 25.5812 33.9702 24.9303L40.9338 17.9006C41.5867 17.2698 42.4556 16.9175 43.3593 16.9173C44.2631 16.917 45.1322 17.2688 45.7854 17.8992L51.0462 23.2113C52.3398 24.4591 53.9648 25.3004 55.7235 25.6326C57.4822 25.9649 59.2987 25.7738 60.9517 25.0827C62.6048 24.3915 64.0231 23.2302 65.0341 21.74C66.0451 20.2497 66.6051 18.4949 66.6459 16.6892L66.646 9.17847C66.6465 8.26058 67.0077 7.38038 67.6504 6.73107C68.2931 6.08177 69.1647 5.71643 70.074 5.71525H79.9266C80.8359 5.71643 81.7075 6.08177 82.3502 6.73107C82.9929 7.38038 83.3541 8.26058 83.3545 9.17847V16.6896C83.3956 18.4952 83.9558 20.2498 84.9669 21.7398C85.978 23.2298 87.3964 24.3909 89.0495 25.0818C90.7025 25.7727 92.5188 25.9636 94.2774 25.6312C96.0359 25.2988 97.6608 24.4575 98.9543 23.2096L104.215 17.8993C104.869 17.2706 105.738 16.9198 106.641 16.9198C107.544 16.9198 108.412 17.2706 109.066 17.8993L116.03 24.9318C116.67 25.5827 117.03 26.4627 117.03 27.3799C117.03 28.2972 116.67 29.1772 116.03 29.8281L110.769 35.1387C109.533 36.4444 108.7 38.0848 108.37 39.8601C108.041 41.6355 108.23 43.4692 108.915 45.1379C109.6 46.8066 110.75 48.2383 112.227 49.2587C113.703 50.279 115.441 50.844 117.23 50.8848L124.669 50.885C125.578 50.886 126.45 51.251 127.093 51.8999C127.736 52.5489 128.098 53.4288 128.1 54.3468V64.2914C128.098 65.2093 127.736 66.0892 127.093 66.7382C126.45 67.3872 125.578 67.7522 124.669 67.7532H117.23C115.43 67.7682 113.673 68.3179 112.181 69.3339C110.688 70.3499 109.524 71.787 108.835 73.4662C108.146 75.1453 107.962 76.9921 108.306 78.7761C108.65 80.5601 109.507 82.2024 110.769 83.4981L116.03 88.8117C116.67 89.4625 117.03 90.3425 117.03 91.2598C117.03 92.177 116.67 93.0571 116.03 93.7079L109.066 100.738C108.413 101.367 107.544 101.719 106.641 101.719C105.738 101.719 104.869 101.368 104.215 100.739L98.9543 95.4283C97.6609 94.1802 96.036 93.3386 94.2773 93.006C92.5186 92.6735 90.702 92.8643 89.0488 93.5554C87.3957 94.2464 85.9772 95.4078 84.9662 96.8981C83.9552 98.3884 83.3953 100.143 83.3546 101.949L83.3545 109.46C83.354 110.378 82.9928 111.258 82.3502 111.907C81.7075 112.557 80.8358 112.922 79.9266 112.923H70.074C69.1647 112.922 68.2931 112.557 67.6504 111.907C67.0077 111.258 66.6465 110.378 66.646 109.46V101.949C66.63 100.132 66.0845 98.3593 65.0776 96.8528C64.0707 95.3464 62.6469 94.1724 60.9836 93.4772C59.3203 92.7821 57.4912 92.5964 55.7241 92.9433C53.957 93.2903 52.3301 94.1546 51.0463 95.4285L45.7855 100.739C45.1321 101.369 44.2633 101.721 43.3597 101.721C42.4561 101.721 41.5873 101.369 40.9339 100.739L33.9702 93.7065C33.33 93.0556 32.9707 92.1756 32.9707 91.2584C32.9707 90.3411 33.33 89.4611 33.9702 88.8103ZM45.4427 150.181L40.0133 127.887C39.916 127.496 39.7382 127.13 39.4916 126.813C39.245 126.496 38.9351 126.235 38.582 126.048C38.229 125.86 37.8406 125.749 37.4423 125.722C37.044 125.696 36.6447 125.754 36.2702 125.894L10.0301 135.833L33.0956 100.908L36.9308 104.781C38.6632 106.45 40.9656 107.38 43.3598 107.38C45.7541 107.38 48.0563 106.449 49.7883 104.78L55.0491 99.4692C55.541 98.9943 56.1592 98.674 56.8282 98.5473C57.4973 98.4207 58.1884 98.4931 58.8174 98.7559C59.4464 99.0187 59.9861 99.4604 60.3709 100.027C60.7556 100.594 60.9688 101.262 60.9844 101.949V109.46C60.9878 111.294 61.5354 113.085 62.5566 114.602C63.5778 116.119 65.0258 117.292 66.7138 117.971L45.4427 150.181ZM113.73 125.894C113.356 125.754 112.956 125.696 112.558 125.722C112.16 125.749 111.772 125.86 111.418 126.048C111.065 126.236 110.755 126.496 110.509 126.813C110.262 127.13 110.084 127.496 109.987 127.887L104.558 150.181L83.2867 117.971C84.9747 117.292 86.4226 116.119 87.4438 114.602C88.465 113.085 89.0126 111.294 89.016 109.46V101.949C89.022 101.249 89.2372 100.568 89.6333 99.9947C90.0295 99.421 90.588 98.9816 91.2358 98.7339C91.8576 98.4711 92.5427 98.4007 93.2042 98.5316C93.8657 98.6625 94.4738 98.9889 94.9512 99.4692L100.212 104.78C101.944 106.449 104.246 107.38 106.641 107.38C109.035 107.38 111.338 106.449 113.069 104.78L116.905 100.908L139.97 135.833L113.73 125.894ZM61.1394 59.253C60.6687 58.6751 60.4413 57.9338 60.5062 57.1885C60.5711 56.4432 60.9231 55.7533 61.4865 55.2672C62.0498 54.781 62.7797 54.5374 63.5191 54.5887C64.2585 54.6399 64.9485 54.982 65.4407 55.5413L70.7568 61.8175L84.9688 50.6339C85.262 50.403 85.5973 50.2327 85.9557 50.1326C86.314 50.0326 86.6884 50.0048 87.0574 50.0508C87.4264 50.0968 87.7828 50.2157 88.1063 50.4007C88.4298 50.5858 88.714 50.8333 88.9427 51.1293C89.1714 51.4252 89.3402 51.7637 89.4393 52.1255C89.5384 52.4872 89.5659 52.8651 89.5204 53.2376C89.4748 53.6101 89.357 53.9699 89.1737 54.2965C88.9904 54.623 88.7452 54.91 88.452 55.1408L72.1031 68.0044C71.5284 68.4568 70.8029 68.668 70.0779 68.5939C69.3528 68.5198 68.684 68.1662 68.2107 67.6068L61.1394 59.253Z" fill="white"/>
</svg>
