<svg width="174" height="160" viewBox="0 0 174 160" fill="none" xmlns="http://www.w3.org/2000/svg">
<path d="M8.57712 91.1189L12.6237 87.0972L16.6673 91.1218L12.6208 95.1435L8.57712 91.1189Z" fill="white"/>
<path d="M57.1227 139.397L61.1678 135.373L65.2129 139.397L61.1678 143.42L57.1227 139.397Z" fill="white"/>
<path d="M65.2104 147.46L69.2548 143.436L73.3006 147.458L69.2562 151.482L65.2104 147.46Z" fill="white"/>
<path d="M115.814 25.7344C110.23 31.2898 110.231 40.2959 115.816 45.8499C121.402 51.4039 130.457 51.4028 136.042 45.8474C141.625 40.293 141.625 31.2891 136.042 25.7347C130.533 20.1793 121.54 20.1167 115.955 25.595C115.907 25.6408 115.86 25.6874 115.814 25.7344ZM131.997 41.8242C128.647 45.1582 123.214 45.1597 119.862 41.8281C116.51 38.4962 116.509 33.0926 119.858 29.7589C123.208 26.4253 128.641 26.4235 131.993 29.755C133.603 31.3556 134.508 33.5265 134.508 35.7905C134.507 38.0531 133.604 40.223 131.997 41.8242Z" fill="white"/>
<path d="M16.6706 99.1663L20.7157 95.1432L24.7608 99.1663L20.7157 103.19L16.6706 99.1663Z" fill="white"/>
<path d="M24.7604 107.206L28.8055 103.182L32.8506 107.206L28.8055 111.229L24.7604 107.206Z" fill="white"/>
<path d="M32.8413 115.259L36.8879 111.237L40.9315 115.262L36.885 119.284L32.8413 115.259Z" fill="white"/>
<path d="M40.9323 123.306L44.9774 119.283L49.0225 123.306L44.9774 127.329L40.9323 123.306Z" fill="white"/>
<path d="M49.0307 131.351L53.0758 127.328L57.1209 131.351L53.0758 135.374L49.0307 131.351Z" fill="white"/>
<path d="M169.555 27.2734C169.235 23.1431 165.978 19.8379 161.832 19.4361L156.049 18.8671L155.48 13.0326C155.088 8.96318 151.849 5.74187 147.757 5.35178L92.4428 0.0406528C89.8904 -0.208262 87.3605 0.694943 85.5496 2.50135L2.51376 85.0842C-0.837382 88.4168 -0.838097 93.8204 2.51268 97.1533L63.1882 157.5C66.539 160.833 71.972 160.834 75.3232 157.501L77.3464 155.489L79.3686 157.5C82.7194 160.831 88.151 160.831 91.5018 157.5L170.548 78.8883C172.319 77.1271 173.228 74.6842 173.036 72.2003L169.555 27.2734ZM67.2326 153.477L6.55815 93.1319C5.44051 92.0218 5.43943 90.2203 6.556 89.1088L6.55815 89.1066L89.6026 6.52382C90.1321 5.99221 90.8522 5.69137 91.6048 5.68746H91.8908L147.214 11.0413C148.578 11.1714 149.657 12.2449 149.788 13.6015L155.142 68.6245C155.221 69.4676 154.918 70.3018 154.316 70.9003L71.2799 153.477C70.1636 154.589 68.3524 154.59 67.2347 153.48L67.2326 153.477ZM166.498 74.8659L87.4574 153.477C86.3405 154.588 84.53 154.588 83.413 153.477L81.3908 151.466L158.357 74.9142C160.175 73.1139 161.083 70.597 160.831 68.0584L156.607 24.6448L161.278 25.0971C162.66 25.2312 163.746 26.3339 163.852 27.7114L167.327 72.6356C167.391 73.4638 167.088 74.2788 166.498 74.8659Z" fill="white"/>
<path fill-rule="evenodd" clip-rule="evenodd" d="M43.7643 92.1967C42.0265 93.9223 42.0265 96.723 43.7643 98.4486C45.5074 100.179 48.3338 100.169 50.0638 98.425L54.1802 94.2756L66.3261 106.337C67.3083 107.312 68.8991 107.312 69.8813 106.337C70.8657 105.359 70.8657 103.773 69.8813 102.795L57.7143 90.713L60.6845 87.719C61.0638 87.3366 61.6834 87.3343 62.0656 87.7138L72.3518 97.9281C77.9742 103.511 83.6591 106.675 89.4064 107.419C95.1538 108.164 100.401 106.179 105.149 101.464C109.897 96.7494 111.875 91.5592 111.084 85.8934C110.334 80.1862 107.148 74.541 101.526 68.9579L85.594 53.1374C84.9045 52.4528 83.7879 52.4528 83.0985 53.1374L51.4863 84.5286L46.8919 79.9663C45.9097 78.9909 44.3189 78.9909 43.3367 79.9663C42.3522 80.9438 42.3522 82.5303 43.3366 83.5078L47.9255 88.0646L43.7643 92.1967ZM47.9255 88.0646L54.1802 94.2756L57.7143 90.713L51.4863 84.5286L47.9255 88.0646ZM67.9964 83.3054C67.3076 82.6215 67.3051 81.5122 67.9908 80.8252L83.9592 64.825C84.6469 64.1358 85.7665 64.1325 86.4584 64.8176L96.0909 74.3549C99.9224 78.1597 102.067 81.8611 102.525 85.4591C102.984 89.0571 101.734 92.3243 98.7771 95.2606C95.7785 98.2383 92.4467 99.5203 88.7817 99.1068C85.1167 98.6932 81.3684 96.584 77.5369 92.7792L67.9964 83.3054Z" fill="white"/>
<path d="M47.9255 88.0646L54.1802 94.2756L57.7143 90.713L51.4863 84.5286L47.9255 88.0646Z" fill="white"/>
</svg>
