<svg width="846" height="527" viewBox="0 0 846 527" fill="none" xmlns="http://www.w3.org/2000/svg">
<g clip-path="url(#clip0_258_3283)">
<path d="M221.103 321.176C309.992 321.176 382.051 249.278 382.051 160.588C382.051 71.8977 309.992 0 221.103 0C132.215 0 60.1562 71.8977 60.1562 160.588C60.1562 249.278 132.215 321.176 221.103 321.176Z" fill="#E9E9E9"/>
<path d="M0 38.5586C0 96.9869 36.7368 144.266 82.1365 144.266L0 38.5586Z" fill="#E37600"/>
<path d="M82.1328 144.267C82.1328 85.1818 123.129 37.3711 173.792 37.3711L82.1328 144.267Z" fill="#FFE6C9"/>
<path d="M29.7578 43.8555C29.7578 99.3562 53.1842 144.267 82.1347 144.267L29.7578 43.8555Z" fill="#FFE6C9"/>
<path d="M82.1328 144.264C82.1328 68.7672 129.518 7.67578 188.077 7.67578L82.1328 144.264Z" fill="#E37600"/>
<path d="M64.8594 145.011C64.8594 145.011 76.5077 144.653 80.0182 142.158C83.5287 139.664 97.9362 136.686 98.8071 140.686C99.678 144.686 116.312 160.581 103.161 160.687C90.0106 160.793 72.6047 158.643 69.1009 156.514C65.5971 154.384 64.8594 145.011 64.8594 145.011Z" fill="#B18282"/>
<path opacity="0.2" d="M103.396 159.295C90.2453 159.401 72.8394 157.251 69.3356 155.122C66.6673 153.5 65.604 147.681 65.2482 144.996C65.0019 145.007 64.8594 145.011 64.8594 145.011C64.8594 145.011 65.5971 154.385 69.1009 156.514C72.6047 158.644 90.0106 160.793 103.161 160.688C106.958 160.657 108.269 159.309 108.197 157.314C107.669 158.519 106.222 159.272 103.396 159.295Z" fill="black"/>
<path d="M150.075 339.223C228.113 339.223 291.376 330.636 291.376 320.043C291.376 309.45 228.113 300.863 150.075 300.863C72.0361 300.863 8.77344 309.45 8.77344 320.043C8.77344 330.636 72.0361 339.223 150.075 339.223Z" fill="#743E00"/>
<path opacity="0.1" d="M150.07 336.147C215.589 336.147 268.702 328.938 268.702 320.044C268.702 311.151 215.589 303.941 150.07 303.941C84.5511 303.941 31.4375 311.151 31.4375 320.044C31.4375 328.938 84.5511 336.147 150.07 336.147Z" fill="black"/>
<path d="M632.161 526.998C750.262 526.998 846.002 514.003 846.002 497.972C846.002 481.941 750.262 468.945 632.161 468.945C514.06 468.945 418.32 481.941 418.32 497.972C418.32 514.003 514.06 526.998 632.161 526.998Z" fill="#743E00"/>
<path d="M234.706 504.099C305.65 504.099 363.161 496.293 363.161 486.663C363.161 477.033 305.65 469.227 234.706 469.227C163.762 469.227 106.25 477.033 106.25 486.663C106.25 496.293 163.762 504.099 234.706 504.099Z" fill="#743E00"/>
<path d="M349.555 471.963C417.561 489.304 548.283 449.345 562.64 404.109" stroke="#E37600" stroke-width="2" stroke-miterlimit="10"/>
<path d="M233.945 195.27C233.945 195.27 332.176 168.128 338.221 255.585C344.266 343.041 257.37 367.921 325.375 385.261" stroke="#E37600" stroke-width="2" stroke-miterlimit="10"/>
<path d="M139.039 405.075C139.039 405.075 168.563 396.918 170.38 423.203C172.197 449.489 146.079 456.967 166.519 462.179" stroke="#E37600" stroke-width="2" stroke-miterlimit="10"/>
<path d="M588.409 424.648L582.456 462.567C582.456 462.567 553.152 478.1 573.756 478.557C594.361 479.014 691.432 478.557 691.432 478.557C691.432 478.557 710.205 478.557 680.443 462.11L674.49 422.363L588.409 424.648Z" fill="#E37600"/>
<path opacity="0.1" d="M569.605 478.145C574.285 473.991 582.45 469.662 582.45 469.662L588.402 431.743L674.484 431.824L680.436 469.205C687.377 473.041 691.676 475.981 694.191 478.236C698.014 477.366 702.191 474.132 680.436 462.11L674.484 422.363L588.402 424.648L582.45 462.567C582.45 462.567 557.826 475.621 569.605 478.145Z" fill="black"/>
<path d="M811.267 160.352H450.714C443.183 160.352 437.078 166.443 437.078 173.957V416.293C437.078 423.807 443.183 429.898 450.714 429.898H811.267C818.798 429.898 824.903 423.807 824.903 416.293V173.957C824.903 166.443 818.798 160.352 811.267 160.352Z" fill="#E37600"/>
<path d="M811.851 174.746H450.125V376.678H811.851V174.746Z" fill="#743E00"/>
<path d="M630.985 170.631C632.249 170.631 633.274 169.608 633.274 168.347C633.274 167.085 632.249 166.062 630.985 166.062C629.72 166.062 628.695 167.085 628.695 168.347C628.695 169.608 629.72 170.631 630.985 170.631Z" fill="#F2F2F2"/>
<path d="M824.903 392.664V416.293C824.903 418.079 824.551 419.849 823.865 421.5C823.18 423.15 822.176 424.65 820.91 425.914C819.643 427.177 818.14 428.179 816.486 428.863C814.831 429.546 813.058 429.898 811.267 429.898H450.714C448.923 429.898 447.15 429.546 445.495 428.863C443.841 428.179 442.338 427.177 441.071 425.914C439.805 424.65 438.801 423.15 438.116 421.5C437.43 419.849 437.078 418.079 437.078 416.293V392.664H824.903Z" fill="#E37600"/>
<path d="M732.184 503.224V507.793H485.844V504.138L486.183 503.224L492.254 486.777H727.147L732.184 503.224Z" fill="#E37600"/>
<path d="M826.979 498.754C826.53 500.668 824.836 502.688 821.008 504.598C807.271 511.45 779.341 502.77 779.341 502.77C779.341 502.77 757.82 499.115 757.82 489.521C758.425 489.108 759.055 488.734 759.707 488.402C765.482 485.353 784.63 477.831 818.583 488.72C821.084 489.504 823.319 490.965 825.037 492.94C826.413 494.547 827.491 496.586 826.979 498.754Z" fill="#E37600"/>
<path opacity="0.1" d="M826.983 498.754C810.169 505.182 795.183 505.662 779.803 495.003C772.046 489.631 764.999 488.301 759.711 488.402C765.486 485.353 784.635 477.831 818.587 488.72C821.088 489.504 823.323 490.965 825.041 492.94C826.417 494.547 827.496 496.586 826.983 498.754Z" fill="black"/>
<path d="M805.898 495.003C809.185 495.003 811.85 494.184 811.85 493.175C811.85 492.166 809.185 491.348 805.898 491.348C802.61 491.348 799.945 492.166 799.945 493.175C799.945 494.184 802.61 495.003 805.898 495.003Z" fill="#F2F2F2"/>
<path d="M630.989 420.075C635.794 420.075 639.688 416.189 639.688 411.395C639.688 406.601 635.794 402.715 630.989 402.715C626.184 402.715 622.289 406.601 622.289 411.395C622.289 416.189 626.184 420.075 630.989 420.075Z" fill="#F2F2F2"/>
<path opacity="0.1" d="M732.184 503.227V507.795H485.844V504.14L486.183 503.227H732.184Z" fill="black"/>
<path d="M239.239 119.875H82.0703V302.327H239.239V119.875Z" fill="#E37600"/>
<path d="M255.108 101.781H66.2031V166.62H255.108V101.781Z" fill="#743E00"/>
<path d="M255.108 178.684H66.2031V243.522H255.108V178.684Z" fill="#743E00"/>
<path d="M255.108 255.582H66.2031V320.42H255.108V255.582Z" fill="#743E00"/>
<path opacity="0.4" d="M217.324 113.09H205.234V125.153H217.324V113.09Z" fill="#FFE6C9"/>
<path opacity="0.8" d="M234.699 113.09H222.609V125.153H234.699V113.09Z" fill="#FFE6C9"/>
<path d="M252.082 113.09H239.992V125.153H252.082V113.09Z" fill="#FFE6C9"/>
<path opacity="0.4" d="M217.324 189.238H205.234V201.301H217.324V189.238Z" fill="#FFE6C9"/>
<path opacity="0.8" d="M234.699 189.238H222.609V201.301H234.699V189.238Z" fill="#FFE6C9"/>
<path d="M252.082 189.238H239.992V201.301H252.082V189.238Z" fill="#FFE6C9"/>
<path opacity="0.4" d="M217.324 265.387H205.234V277.45H217.324V265.387Z" fill="#FFE6C9"/>
<path opacity="0.8" d="M234.699 265.387H222.609V277.45H234.699V265.387Z" fill="#FFE6C9"/>
<path d="M252.082 265.387H239.992V277.45H252.082V265.387Z" fill="#FFE6C9"/>
<path d="M239.233 465.176C272.201 465.176 298.927 438.51 298.927 405.615C298.927 372.721 272.201 346.055 239.233 346.055C206.265 346.055 179.539 372.721 179.539 405.615C179.539 438.51 206.265 465.176 239.233 465.176Z" fill="#E37600"/>
<path d="M230.166 452.359H212.031V484.779H230.166V452.359Z" fill="#E37600"/>
<path d="M266.44 452.359H248.305V484.779H266.44V452.359Z" fill="#E37600"/>
<path d="M227.144 490.813C235.49 490.813 242.256 488.281 242.256 485.158C242.256 482.036 235.49 479.504 227.144 479.504C218.797 479.504 212.031 482.036 212.031 485.158C212.031 488.281 218.797 490.813 227.144 490.813Z" fill="#E37600"/>
<path d="M263.417 490.059C271.763 490.059 278.53 487.527 278.53 484.405C278.53 481.282 271.763 478.75 263.417 478.75C255.071 478.75 248.305 481.282 248.305 484.405C248.305 487.527 255.071 490.059 263.417 490.059Z" fill="#E37600"/>
<path d="M240.746 410.896C252.013 410.896 261.147 401.782 261.147 390.54C261.147 379.297 252.013 370.184 240.746 370.184C229.478 370.184 220.344 379.297 220.344 390.54C220.344 401.782 229.478 410.896 240.746 410.896Z" fill="white"/>
<path d="M240.746 397.325C244.502 397.325 247.546 394.287 247.546 390.539C247.546 386.792 244.502 383.754 240.746 383.754C236.99 383.754 233.945 386.792 233.945 390.539C233.945 394.287 236.99 397.325 240.746 397.325Z" fill="#743E00"/>
<path d="M181.328 350.228C176.508 328.689 191.915 306.926 215.742 301.618C239.568 296.309 262.791 309.466 267.611 331.004C272.431 352.542 256.64 360.486 232.814 365.794C208.987 371.103 186.148 371.766 181.328 350.228Z" fill="#FFE6C9"/>
<path d="M295.227 393.737C310.381 387.266 321.016 378.171 318.98 373.425C316.943 368.678 303.008 370.076 287.853 376.548C272.699 383.019 262.065 392.114 264.101 396.86C266.137 401.607 280.073 400.209 295.227 393.737Z" fill="#E37600"/>
<path d="M183.391 433.694C198.546 427.223 209.18 418.128 207.144 413.382C205.108 408.635 191.172 410.033 176.018 416.505C160.863 422.976 150.229 432.071 152.265 436.817C154.301 441.564 168.237 440.166 183.391 433.694Z" fill="#E37600"/>
<path d="M273.993 422.959C273.993 428.788 258.95 440.299 242.257 440.299C225.565 440.299 209.766 429.542 209.766 423.713C209.766 417.883 225.565 419.189 242.257 419.189C258.95 419.189 273.993 417.129 273.993 422.959Z" fill="white"/>
</g>
<defs>
<clipPath id="clip0_258_3283">
<rect width="846" height="527" fill="white"/>
</clipPath>
</defs>
</svg>
