<svg width="31" height="20" viewBox="0 0 31 20" fill="none" xmlns="http://www.w3.org/2000/svg">
<path d="M7.80302 20C6.31153 20 4.97465 19.6089 3.79238 18.8268C2.62829 18.0447 1.70066 16.9088 1.00948 15.419C0.336494 13.9292 0 12.1229 0 10C0 7.87709 0.336494 6.07076 1.00948 4.58101C1.70066 3.09125 2.62829 1.95531 3.79238 1.17318C4.97465 0.391061 6.31153 0 7.80302 0C9.27632 0 10.6041 0.391061 11.7864 1.17318C12.9687 1.95531 13.8963 3.09125 14.5693 4.58101C15.2423 6.07076 15.5788 7.87709 15.5788 10C15.5788 12.1229 15.2423 13.9292 14.5693 15.419C13.8963 16.9088 12.9687 18.0447 11.7864 18.8268C10.6041 19.6089 9.27632 20 7.80302 20ZM7.80302 17.514C8.80341 17.514 9.67647 17.2346 10.4222 16.676C11.1862 16.1173 11.7773 15.2793 12.1956 14.162C12.6322 13.0447 12.8504 11.6574 12.8504 10C12.8504 8.34264 12.6322 6.95531 12.1956 5.83799C11.7773 4.72067 11.1862 3.88268 10.4222 3.32402C9.67647 2.76536 8.80341 2.48603 7.80302 2.48603C6.80263 2.48603 5.92048 2.76536 5.15654 3.32402C4.39261 3.88268 3.79238 4.72067 3.35584 5.83799C2.9375 6.95531 2.72833 8.34264 2.72833 10C2.72833 11.6574 2.9375 13.0447 3.35584 14.162C3.79238 15.2793 4.39261 16.1173 5.15654 16.676C5.92048 17.2346 6.80263 17.514 7.80302 17.514Z" fill="#454545"/>
<path d="M23.7699 20C22.424 20 21.1144 19.7858 19.8411 19.3575C18.5861 18.9292 17.5584 18.352 16.7581 17.6257L18.0132 15.419C18.6498 16.0335 19.4774 16.5363 20.4959 16.9274C21.5145 17.3184 22.6058 17.514 23.7699 17.514C25.1887 17.514 26.2891 17.2067 27.0712 16.5922C27.8715 15.959 28.2717 15.1117 28.2717 14.0503C28.2717 13.0261 27.8897 12.2067 27.1258 11.5922C26.38 10.959 25.1887 10.6425 23.5517 10.6425H22.0238V8.68715L27.6987 1.53631L28.0807 2.65363H17.6312V0.223462H30.2361V2.1229L24.5884 9.24581L23.1697 8.37989H24.07C26.38 8.37989 28.108 8.91061 29.2539 9.97207C30.418 11.0335 31 12.3836 31 14.0223C31 15.121 30.7363 16.1266 30.2088 17.0391C29.6813 17.9516 28.881 18.6778 27.8079 19.2179C26.7529 19.7393 25.4069 20 23.7699 20Z" fill="#454545"/>
</svg>
