<svg width="29" height="25" viewBox="0 0 29 25" fill="none" xmlns="http://www.w3.org/2000/svg">
<path fill-rule="evenodd" clip-rule="evenodd" d="M0 1.19048C0 0.532994 0.540989 0 1.20833 0H6.32994L10.9008 14.6358C11.0568 15.1353 11.5253 15.4762 12.0557 15.4762H23.1529C23.6424 15.4762 24.0836 15.1852 24.2701 14.7393L25.4378 11.9474L26.5261 8.04461C26.5641 7.90845 26.5833 7.76789 26.5833 7.62669C26.5833 6.78089 25.8874 6.09524 25.0289 6.09524H14.5C13.8327 6.09524 13.2917 5.56224 13.2917 4.90476C13.2917 4.24728 13.8327 3.71429 14.5 3.71429H25.0289C27.2221 3.71429 29 5.46593 29 7.62669C29 7.98099 28.9517 8.3337 28.8565 8.67534L27.7288 12.7193L26.5045 15.6464C25.9449 16.9842 24.6215 17.8571 23.1529 17.8571H12.0557C10.4643 17.8571 9.05903 16.8346 8.59102 15.336L4.54506 2.38095H1.20833C0.540989 2.38095 0 1.84796 0 1.19048Z" fill="#F7F7F7"/>
<path d="M13.2917 22.619C13.2917 23.934 12.2097 25 10.875 25C9.54031 25 8.45833 23.934 8.45833 22.619C8.45833 21.3041 9.54031 20.2381 10.875 20.2381C12.2097 20.2381 13.2917 21.3041 13.2917 22.619Z" fill="#F7F7F7"/>
<path d="M26.5833 22.619C26.5833 23.934 25.5014 25 24.1667 25C22.832 25 21.75 23.934 21.75 22.619C21.75 21.3041 22.832 20.2381 24.1667 20.2381C25.5014 20.2381 26.5833 21.3041 26.5833 22.619Z" fill="#F7F7F7"/>
</svg>
