<svg width="23" height="30" viewBox="0 0 23 30" fill="none" xmlns="http://www.w3.org/2000/svg">
<path d="M3.05711 17.2947L3.02517 17.2371L2.98596 17.1842C1.74178 15.5057 1 13.4671 1 11.25C1 5.61008 5.68058 1 11.5 1C17.3194 1 22 5.61008 22 11.25C22 13.4671 21.2582 15.5057 20.014 17.1842L19.9748 17.2371L19.9429 17.2946C19.9117 17.351 19.8894 17.4021 19.8739 17.4417L12.2683 28.602C12.1026 28.8452 11.8157 29 11.5 29C11.1843 29 10.8974 28.8452 10.7317 28.602L3.12624 17.4418C3.1108 17.4025 3.08848 17.3512 3.05711 17.2947ZM6.66667 11.25C6.66667 13.8938 8.85159 16 11.5 16C14.1484 16 16.3333 13.8938 16.3333 11.25C16.3333 8.60617 14.1484 6.5 11.5 6.5C8.85159 6.5 6.66667 8.60617 6.66667 11.25Z" stroke="#454545" stroke-width="2"/>
</svg>
