<svg width="28" height="28" viewBox="0 0 28 28" fill="none" xmlns="http://www.w3.org/2000/svg">
<path d="M26.9992 20.4664V24.3804C27.0053 25.8767 25.6599 27.1262 24.1493 26.9898C11.1112 27.0001 0.999993 16.795 1.0102 3.84439C0.874152 2.34182 2.11739 1.00153 3.61171 1.00013H7.53358C8.16801 0.99389 8.78308 1.21811 9.26413 1.63099C10.6317 2.80482 11.5114 6.78901 11.173 8.37286C10.9087 9.60943 9.66219 10.4745 8.81473 11.3203C10.6757 14.5868 13.3856 17.2912 16.6584 19.1486C17.5059 18.3027 18.3728 17.0588 19.6117 16.795C21.2012 16.4567 25.211 17.3376 26.3801 18.7147C26.7948 19.2031 27.0151 19.8265 26.9992 20.4664Z" stroke="#454545" stroke-width="2" stroke-linecap="round" stroke-linejoin="round"/>
</svg>
