<svg width="34" height="34" viewBox="0 0 34 34" fill="none" xmlns="http://www.w3.org/2000/svg">
<path fill-rule="evenodd" clip-rule="evenodd" d="M16.9951 0C7.62327 0 0 7.6254 0 16.9998C0 20.7176 1.19895 24.1655 3.23709 26.9641L1.11888 33.2802L7.65315 31.1918C10.3407 32.9708 13.5479 34 17.0049 34C26.3767 34 34 26.3743 34 17.0002C34 7.6257 26.3767 0.000281016 17.0049 0.000281016L16.9951 0ZM12.2491 8.63517C11.9195 7.84569 11.6696 7.8158 11.1703 7.79549C11.0002 7.78562 10.8107 7.77576 10.6007 7.77576C9.95098 7.77576 9.2717 7.96558 8.86199 8.38528C8.36261 8.89496 7.12358 10.0841 7.12358 12.5228C7.12358 14.9614 8.90203 17.32 9.14171 17.65C9.39154 17.9794 12.6089 23.0565 17.6044 25.1256C21.5109 26.7446 22.6701 26.5946 23.5592 26.4048C24.858 26.125 26.4867 25.1651 26.8964 24.0062C27.3061 22.8466 27.3061 21.8572 27.186 21.6473C27.0662 21.4375 26.7362 21.3179 26.2369 21.0677C25.7375 20.8178 23.3094 19.6185 22.8498 19.4585C22.4 19.2887 21.9706 19.3488 21.6311 19.8286C21.1514 20.4982 20.6819 21.178 20.3021 21.5875C20.0024 21.9074 19.5126 21.9474 19.1031 21.7773C18.5535 21.5477 17.0151 21.0076 15.1165 19.3186C13.6477 18.0096 12.6487 16.3807 12.3591 15.8911C12.0692 15.3916 12.3292 15.1013 12.5587 14.8317C12.8085 14.5217 13.0482 14.302 13.2981 14.012C13.5479 13.7223 13.6878 13.5723 13.8476 13.2324C14.0177 12.9027 13.8975 12.5628 13.7777 12.3129C13.6579 12.063 12.6588 9.62434 12.2491 8.63517Z" fill="#67C15E"/>
</svg>
