<svg width="34" height="34" viewBox="0 0 34 34" fill="none" xmlns="http://www.w3.org/2000/svg">
<path d="M23.9501 10.1763C23.9569 10.1763 23.9659 10.1763 23.975 10.1763C24.2109 10.1763 24.4299 10.2497 24.6094 10.3761L24.606 10.3738C24.7369 10.4878 24.825 10.6481 24.8464 10.8288V10.8321C24.869 10.9699 24.8814 11.1279 24.8814 11.2893C24.8814 11.3627 24.8792 11.4349 24.8735 11.5072V11.497C24.6195 14.1712 23.5178 20.6562 22.9579 23.6499C22.7209 24.9175 22.2546 25.342 21.8031 25.3826C20.8222 25.474 20.0772 24.7347 19.1267 24.1116C17.6389 23.1351 16.7979 22.5278 15.3542 21.5762C13.6847 20.4779 14.7672 19.8717 15.7177 18.8851C15.9671 18.6255 20.2916 14.6916 20.3763 14.3349C20.3808 14.3134 20.3831 14.2897 20.3831 14.2649C20.3831 14.1768 20.3503 14.0967 20.2973 14.0357C20.2386 13.9973 20.1652 13.9759 20.0884 13.9759C20.0377 13.9759 19.9891 13.9861 19.944 14.003L19.9462 14.0019C19.7972 14.0357 17.4207 15.6063 12.8166 18.7135C12.3143 19.1098 11.6799 19.3604 10.989 19.3897H10.9823C10.0036 19.2712 9.11521 19.0533 8.27198 18.7429L8.35551 18.77C7.29668 18.4246 6.45571 18.2428 6.52796 17.6581C6.56634 17.3541 6.9855 17.0429 7.78546 16.7246C12.7131 14.5776 15.9991 13.1624 17.6434 12.4791C19.4574 11.5162 21.5604 10.7238 23.7718 10.2102L23.949 10.1752L23.9501 10.1763ZM16.9605 0C7.58905 0.0225764 0 7.62516 0 17C0 26.3884 7.61049 34 17 34C26.3895 34 34 26.3895 34 17C34 7.62516 26.411 0.0225764 17.0418 0H17.0395C17.0132 0 16.9868 0 16.9605 0Z" fill="#5288C1"/>
</svg>
