<svg width="34" height="34" viewBox="0 0 34 34" fill="none" xmlns="http://www.w3.org/2000/svg">
<path fill-rule="evenodd" clip-rule="evenodd" d="M17 0C26.3888 0 34 7.61116 34 17C34 26.3888 26.3888 34 17 34C7.61116 34 0 26.3888 0 17C0 7.61116 7.61116 0 17 0ZM18.0182 6.92477C19.1741 7.06903 20.1082 7.34748 21.1331 7.84739C22.1411 8.34062 22.7863 8.80697 23.6398 9.6558C24.4396 10.4577 24.8831 11.065 25.3535 12.0078C26.0088 13.323 26.3818 14.8865 26.4456 16.6077C26.4692 17.1948 26.4523 17.3257 26.3179 17.4935C26.0625 17.819 25.5014 17.7652 25.3099 17.3995C25.2494 17.2787 25.2325 17.1748 25.2124 16.705C25.1788 15.9836 25.1284 15.5173 25.0276 14.9603C24.6311 12.7761 23.5827 11.0314 21.9093 9.77996C20.5148 8.73317 19.0733 8.22316 17.1849 8.11246C16.5464 8.07555 16.4355 8.05211 16.291 7.94137C16.0221 7.72999 16.0087 7.23345 16.2675 7.00195C16.4254 6.85765 16.5363 6.83751 17.084 6.85429C17.3696 6.86435 17.7897 6.89792 18.0182 6.92477ZM10.3367 7.28713C10.4543 7.32738 10.6358 7.42131 10.7399 7.48842C11.3783 7.91119 13.1559 10.1826 13.7372 11.3166C14.0699 11.9642 14.1808 12.444 14.0766 12.7996C13.9691 13.1821 13.791 13.3834 12.9946 14.0243C12.6754 14.2826 12.3763 14.5476 12.3293 14.6181C12.2083 14.7926 12.1108 15.1348 12.1108 15.3764C12.1143 15.9367 12.4772 16.9533 12.9543 17.7351C13.3239 18.3423 13.9858 19.1207 14.6411 19.7179C15.4106 20.4226 16.0894 20.9023 16.8555 21.2814C17.84 21.7713 18.4416 21.8954 18.8818 21.6908C18.9926 21.6404 19.1102 21.5733 19.1472 21.5432C19.1808 21.5129 19.4395 21.1975 19.7218 20.8486C20.2661 20.1642 20.3905 20.0535 20.7635 19.926C21.2373 19.7649 21.7212 19.8085 22.2084 20.0568C22.578 20.2481 23.3845 20.748 23.9053 21.1103C24.5908 21.5901 26.0558 22.7846 26.2541 23.0228C26.6036 23.4523 26.6641 24.0024 26.4288 24.6098C26.1801 25.2506 25.2124 26.4517 24.537 26.9651C23.9254 27.4281 23.492 27.6059 22.9207 27.6327C22.4503 27.6562 22.2554 27.616 21.6539 27.3677C16.9362 25.425 13.1694 22.5262 10.1787 18.5436C8.61624 16.4634 7.42669 14.3061 6.61349 12.0682C6.13973 10.7631 6.11624 10.196 6.50598 9.52834C6.67402 9.24652 7.38974 8.54865 7.91056 8.15947C8.77753 7.51526 9.17738 7.27703 9.49661 7.20995C9.71502 7.16296 10.0947 7.19989 10.3367 7.28713ZM18.25 9.35722C20.2897 9.6558 21.869 10.602 22.9039 12.1387C23.4853 13.0043 23.8482 14.0209 23.9725 15.1113C24.0162 15.5106 24.0161 16.2386 23.9691 16.3594C23.9254 16.4735 23.7843 16.6278 23.6633 16.6916C23.5323 16.7587 23.2534 16.752 23.0988 16.6714C22.8401 16.5406 22.7628 16.3326 22.7628 15.7689C22.7628 14.9 22.5377 13.984 22.1479 13.2727C21.7044 12.4607 21.0592 11.7897 20.2729 11.3233C19.5975 10.9207 18.5995 10.6221 17.6889 10.5483C17.3595 10.5215 17.1781 10.4544 17.0538 10.3101C16.8623 10.092 16.8421 9.79675 17.0034 9.55185C17.1781 9.28007 17.4469 9.23642 18.25 9.35722ZM18.9657 11.8904C19.6277 12.0313 20.1351 12.2829 20.5686 12.6889C21.1264 13.2156 21.4322 13.8531 21.5665 14.7691C21.6573 15.3663 21.6203 15.6011 21.4086 15.7957C21.2104 15.9769 20.8441 15.9836 20.6223 15.8125C20.461 15.6917 20.4106 15.5642 20.3737 15.2187C20.33 14.759 20.2494 14.4369 20.1116 14.1383C19.8159 13.5042 19.295 13.1754 18.4147 13.068C18.0013 13.0177 17.877 12.9707 17.7426 12.8131C17.4973 12.5211 17.5914 12.0481 17.9308 11.8736C18.0585 11.8098 18.1123 11.8031 18.3945 11.8199C18.5692 11.83 18.828 11.8601 18.9657 11.8904Z" fill="#7F4DA0"/>
</svg>
