<svg width="22" height="22" viewBox="0 0 22 22" fill="none" xmlns="http://www.w3.org/2000/svg">
<path d="M20.9994 15.9741V18.9849C21.0041 20.1359 19.9692 21.097 18.8072 20.9922C8.77783 21 0.999994 13.15 1.00785 3.18799C0.903194 2.03217 1.85953 1.00118 3.00901 1.0001H6.02584C6.51386 0.9953 6.98699 1.16778 7.35703 1.48538C8.40904 2.38833 9.08572 5.45309 8.82539 6.67143C8.6221 7.62264 7.66323 8.28812 7.01134 8.93868C8.44288 11.4514 10.5274 13.5317 13.045 14.9605C13.6968 14.3098 14.3637 13.3529 15.3167 13.15C16.5394 12.8898 19.6239 13.5674 20.5232 14.6267C20.8422 15.0024 21.0116 15.4819 20.9994 15.9741Z" stroke="#E9E9E9" stroke-width="2" stroke-linecap="round" stroke-linejoin="round"/>
</svg>
