<svg width="65" height="65" viewBox="0 0 65 65" fill="none" xmlns="http://www.w3.org/2000/svg">
<path d="M65 32.5C65 50.4493 50.4493 65 32.5 65C14.5507 65 0 50.4493 0 32.5C0 14.5507 14.5507 0 32.5 0C50.4493 0 65 14.5507 65 32.5Z" fill="#E37600"/>
<path fill-rule="evenodd" clip-rule="evenodd" d="M26.4731 21.4584C27.104 20.8472 28.1268 20.8472 28.7576 21.4584L39.5269 31.8932C40.1577 32.5045 40.1577 33.4955 39.5269 34.1068L28.7576 44.5416C28.1268 45.1528 27.104 45.1528 26.4731 44.5416C25.8423 43.9303 25.8423 42.9393 26.4731 42.328L36.1001 33L26.4731 23.672C25.8423 23.0607 25.8423 22.0697 26.4731 21.4584Z" fill="white"/>
</svg>
