<svg width="65" height="65" viewBox="0 0 65 65" fill="none" xmlns="http://www.w3.org/2000/svg">
<path d="M0 32.5C0 50.4493 14.5507 65 32.5 65C50.4493 65 65 50.4493 65 32.5C65 14.5507 50.4493 0 32.5 0C14.5507 0 0 14.5507 0 32.5Z" fill="#E37600"/>
<path fill-rule="evenodd" clip-rule="evenodd" d="M38.5269 21.4584C37.896 20.8472 36.8732 20.8472 36.2424 21.4584L25.4731 31.8932C24.8423 32.5045 24.8423 33.4955 25.4731 34.1068L36.2424 44.5416C36.8732 45.1528 37.896 45.1528 38.5269 44.5416C39.1577 43.9303 39.1577 42.9393 38.5269 42.328L28.8999 33L38.5269 23.672C39.1577 23.0607 39.1577 22.0697 38.5269 21.4584Z" fill="white"/>
</svg>
