<svg width="33" height="35" viewBox="0 0 33 35" fill="none" xmlns="http://www.w3.org/2000/svg">
<path fill-rule="evenodd" clip-rule="evenodd" d="M16.0726 2.69646C12.7749 2.69646 10.104 5.30811 10.104 8.52679C10.104 11.7455 12.7749 14.3571 16.0726 14.3571C19.3703 14.3571 22.0413 11.7455 22.0413 8.52679C22.0413 5.30812 19.3703 2.69646 16.0726 2.69646ZM7.3471 8.52679C7.3471 3.81625 11.255 0 16.0726 0C20.8902 0 24.7982 3.81624 24.7982 8.52679C24.7982 13.2373 20.8902 17.0536 16.0726 17.0536C11.255 17.0536 7.3471 13.2373 7.3471 8.52679ZM0 30.0625C0 25.352 3.9079 21.5357 8.72554 21.5357H23.4197C28.2373 21.5357 32.1453 25.352 32.1453 30.0625V33.6518C32.1453 34.3964 31.5281 35 30.7668 35C30.0055 35 29.3884 34.3964 29.3884 33.6518V30.0625C29.3884 26.8439 26.7174 24.2322 23.4197 24.2322H8.72554C5.42779 24.2322 2.75688 26.8439 2.75688 30.0625V33.6518C2.75688 34.3964 2.13973 35 1.37844 35C0.61715 35 0 34.3964 0 33.6518V30.0625Z" fill="white"/>
</svg>
