<svg width="20" height="20" viewBox="0 0 20 20" fill="none" xmlns="http://www.w3.org/2000/svg">
<path d="M18.6687 19.772C18.9733 20.076 19.467 20.076 19.7716 19.772C20.0761 19.4679 20.0761 18.975 19.7716 18.671L18.6687 19.772ZM15.5978 8.56415C15.5978 12.434 12.4552 15.5712 8.57876 15.5712V17.1283C13.3166 17.1283 17.1575 13.2939 17.1575 8.56415H15.5978ZM8.57876 15.5712C4.70229 15.5712 1.55978 12.434 1.55978 8.56415H0C0 13.2939 3.84084 17.1283 8.57876 17.1283V15.5712ZM1.55978 8.56415C1.55978 4.69427 4.70229 1.55712 8.57876 1.55712V0C3.84084 0 0 3.8343 0 8.56415H1.55978ZM8.57876 1.55712C12.4552 1.55712 15.5978 4.69427 15.5978 8.56415H17.1575C17.1575 3.8343 13.3166 0 8.57876 0V1.55712ZM19.7716 18.671L14.6544 13.5283L13.5514 14.6294L18.6687 19.772L19.7716 18.671Z" fill="#BCBCBC"/>
</svg>
