<svg width="22" height="20" viewBox="0 0 22 20" fill="none" xmlns="http://www.w3.org/2000/svg">
<path d="M10.7727 0.431129C10.9242 -0.0256973 11.5704 -0.0256969 11.7219 0.431129L13.8834 6.94918C13.9512 7.15372 14.1425 7.2918 14.358 7.2918H21.3307C21.8175 7.2918 22.0172 7.9168 21.6206 8.19913L15.9973 12.2022C15.8184 12.3295 15.7436 12.5586 15.8127 12.7669L17.9647 19.2565C18.1169 19.7154 17.594 20.1016 17.2002 19.8212L11.5373 15.79C11.3637 15.6665 11.1309 15.6665 10.9573 15.79L5.29447 19.8212C4.90063 20.1016 4.37775 19.7154 4.52992 19.2565L6.68197 12.7669C6.75107 12.5586 6.67618 12.3295 6.49735 12.2022L0.873998 8.19913C0.477398 7.9168 0.677137 7.2918 1.16397 7.2918H8.13665C8.35215 7.2918 8.54341 7.15372 8.61124 6.94918L10.7727 0.431129Z" fill="#FF6C02"/>
</svg>
