<svg width="160" height="160" viewBox="0 0 160 160" fill="none" xmlns="http://www.w3.org/2000/svg">
<path d="M10.88 75.52H15.36V95.36C15.36 96.6208 16.0992 97.7632 17.248 98.2784C17.6672 98.4704 18.1152 98.56 18.56 98.56C19.328 98.56 20.0896 98.2816 20.688 97.7504L45.696 75.52H54.1888V126.08C54.1888 132.077 59.0688 136.957 65.0688 136.957H114.304L139.315 159.187C139.914 159.722 140.672 160 141.44 160C141.885 160 142.33 159.91 142.752 159.718C143.901 159.203 144.64 158.058 144.64 156.8V136.96H149.12C155.12 136.96 160 132.08 160 126.083V72.32C160 66.3232 155.12 61.4432 149.12 61.4432H105.811V10.88C105.811 4.88 100.931 0 94.9312 0H10.88C4.88 0 0 4.88 0 10.88V64.64C0 70.6368 4.88 75.52 10.88 75.52ZM149.12 67.84C151.59 67.84 153.6 69.8496 153.6 72.3168V126.08C153.6 128.547 151.59 130.557 149.12 130.557H141.44C139.674 130.557 138.24 131.987 138.24 133.757V149.674L117.645 131.366C117.062 130.848 116.304 130.56 115.52 130.56H65.0688C62.5984 130.56 60.5888 128.55 60.5888 126.083V72.32C60.5888 69.8528 62.5984 67.8432 65.0688 67.8432L149.12 67.84ZM6.4 10.88C6.4 8.4096 8.4096 6.4 10.88 6.4H94.9312C97.4016 6.4 99.4112 8.4096 99.4112 10.88V61.44H65.0688C60.192 61.44 56.1024 64.688 54.7264 69.1168H44.48C43.696 69.1168 42.9408 69.4048 42.352 69.9264L21.76 88.2336V72.32C21.76 70.5504 20.3264 69.12 18.56 69.12H10.88C8.4096 69.12 6.4 67.1104 6.4 64.64V10.88Z" fill="white"/>
<path d="M89.504 103.2L91.104 101.92V117.472H103.904V111.072H97.504V96.8L107.104 89.12L116.704 96.8V111.072H110.304V117.472H123.104V101.92L124.704 103.2C126.08 104.32 128.096 104.096 129.184 102.688C130.304 101.312 130.08 99.296 128.704 98.2112L107.104 80.9312L85.504 98.2112C84.128 99.2992 83.904 101.315 84.992 102.688C86.112 104.096 88.128 104.32 89.504 103.2Z" fill="white"/>
<path d="M33.696 54.24C35.488 54.24 36.896 52.8 36.896 51.04V37.28C36.896 35.5168 35.488 34.08 33.696 34.08C31.936 34.08 30.496 35.5168 30.496 37.28V51.04C30.496 52.8 31.936 54.24 33.696 54.24Z" fill="white"/>
<path d="M46.496 54.24C48.288 54.24 49.696 52.8 49.696 51.04V30.88C49.696 29.1168 48.288 27.68 46.496 27.68C44.736 27.68 43.296 29.1168 43.296 30.88V51.04C43.296 52.8 44.736 54.24 46.496 54.24Z" fill="white"/>
<path d="M59.296 54.24C61.088 54.24 62.496 52.8 62.496 51.04V24.48C62.496 22.7168 61.088 21.28 59.296 21.28C57.536 21.28 56.096 22.7168 56.096 24.48V51.04C56.096 52.8 57.536 54.24 59.296 54.24Z" fill="white"/>
<path d="M72.096 54.24C73.888 54.24 75.296 52.8 75.296 51.04V18.08C75.296 16.3168 73.888 14.88 72.096 14.88C70.336 14.88 68.896 16.3168 68.896 18.08V51.04C68.896 52.8 70.336 54.24 72.096 54.24Z" fill="white"/>
</svg>
