<svg width="160" height="160" viewBox="0 0 160 160" fill="none" xmlns="http://www.w3.org/2000/svg">
<path d="M157.333 37.3339H143.999V24.0006C144.007 19.7852 142.903 15.6422 140.798 11.9902C138.692 8.33816 135.66 5.30642 132.008 3.20117C128.356 1.09591 124.213 -0.00830536 119.997 4.7034e-05C115.782 0.00839943 111.643 1.12902 107.999 3.24874C104.356 1.12902 100.217 0.00839943 96.0016 4.7034e-05C91.7862 -0.00830536 87.6431 1.09591 83.991 3.20117C80.3389 5.30642 77.3069 8.33816 75.2015 11.9902C73.096 15.6422 71.9916 19.7852 71.9997 24.0006V37.3339H55.9997C55.2925 37.3339 54.6142 37.6149 54.1141 38.115C53.614 38.615 53.3331 39.2933 53.3331 40.0006V65.1311C51.2141 66.0735 49.3763 67.5501 47.9998 69.4164C46.967 67.9876 45.6602 66.7786 44.1554 65.86C42.6506 64.9414 40.978 64.3315 39.2351 64.066C37.4923 63.8004 35.7139 63.8845 34.0039 64.3133C32.2938 64.7422 30.6862 65.5071 29.2748 66.5636C27.8635 67.6201 26.6765 68.947 25.7832 70.467C24.8899 71.9869 24.3082 73.6695 24.0719 75.4166C23.8355 77.1637 23.9494 78.9403 24.4068 80.643C24.8641 82.3456 25.6559 83.9402 26.7359 85.3337H2.66665C1.95941 85.3337 1.28114 85.6146 0.781045 86.1147C0.28095 86.6148 0 87.2931 0 88.0003V104C0 104.708 0.28095 105.386 0.781045 105.886C1.28114 106.386 1.95941 106.667 2.66665 106.667H5.33331V157.333C5.33331 158.041 5.61426 158.719 6.11435 159.219C6.61445 159.719 7.29272 160 7.99996 160H87.9996C88.7068 160 89.3851 159.719 89.8852 159.219C90.3853 158.719 90.6662 158.041 90.6662 157.333V149.333H146.666C150.201 149.329 153.59 147.923 156.089 145.423C158.589 142.924 159.995 139.535 159.999 136V40.0006C159.999 39.2933 159.718 38.615 159.218 38.115C158.718 37.6149 158.04 37.3339 157.333 37.3339ZM119.999 5.33406C124.948 5.33971 129.693 7.30817 133.192 10.8076C136.692 14.307 138.66 19.0517 138.666 24.0006V37.3339H119.999V24.0006C120 20.794 119.355 17.6201 118.104 14.6676C116.853 11.7151 115.021 9.04429 112.717 6.81405C115.02 5.83522 117.497 5.33181 119.999 5.33406ZM107.999 9.72337C110.086 11.4715 111.765 13.6558 112.917 16.1225C114.068 18.5891 114.666 21.2783 114.666 24.0006V37.3339H101.333V24.0006C101.333 21.2783 101.931 18.5891 103.082 16.1225C104.234 13.6558 105.913 11.4715 107.999 9.72337ZM77.333 24.0006C77.3331 20.9182 78.0966 17.8837 79.5552 15.1683C81.0138 12.4528 83.1222 10.1408 85.6921 8.43868C88.262 6.73659 91.2134 5.69741 94.2828 5.41392C97.3522 5.13043 100.444 5.61146 103.282 6.81405C100.978 9.04429 99.1461 11.7151 97.895 14.6676C96.6439 17.6201 95.9993 20.794 95.9995 24.0006V37.3339H77.333V24.0006ZM58.6664 69.3338C60.7881 69.3338 62.8229 70.1766 64.3232 71.6769C65.8235 73.1772 66.6664 75.212 66.6664 77.3337C66.6664 79.4554 65.8235 81.4903 64.3232 82.9905C62.8229 84.4908 60.7881 85.3337 58.6664 85.3337H50.6664V77.3337C50.6664 75.212 51.5093 73.1772 53.0096 71.6769C54.5098 70.1766 56.5447 69.3338 58.6664 69.3338ZM58.6664 101.334V90.667H90.6662V101.334H58.6664ZM53.3331 90.667V101.334H42.6665V90.667H53.3331ZM29.3332 77.3337C29.3332 75.212 30.176 73.1772 31.6763 71.6769C33.1766 70.1766 35.2114 69.3338 37.3332 69.3338C39.4549 69.3338 41.4897 70.1766 42.99 71.6769C44.4903 73.1772 45.3331 75.212 45.3331 77.3337V85.3337H37.3332C35.2114 85.3337 33.1766 84.4908 31.6763 82.9905C30.176 81.4903 29.3332 79.4554 29.3332 77.3337ZM5.33331 90.667H37.3332V101.334H5.33331V90.667ZM10.6666 106.667H37.3332V154.667H10.6666V106.667ZM42.6665 154.667V106.667H53.3331V154.667H42.6665ZM85.3329 154.667H58.6664V106.667H85.3329V154.667ZM90.6662 133.333H125.333C126.04 133.333 126.718 133.053 127.218 132.552C127.718 132.052 127.999 131.374 127.999 130.667C127.999 129.96 127.718 129.281 127.218 128.781C126.718 128.281 126.04 128 125.333 128H90.6662V106.667H93.3329C94.0401 106.667 94.7184 106.386 95.2185 105.886C95.7186 105.386 95.9995 104.708 95.9995 104V88.0003C95.9995 87.2931 95.7186 86.6148 95.2185 86.1147C94.7184 85.6146 94.0401 85.3337 93.3329 85.3337H69.2637C71.0285 83.0393 71.9899 80.2283 71.9997 77.3337C71.9954 73.7988 70.5893 70.4099 68.0898 67.9103C65.5902 65.4108 62.2013 64.0047 58.6664 64.0005V42.6672H71.9997V50.6672C71.9997 51.3744 72.2806 52.0527 72.7807 52.5528C73.2808 53.0529 73.9591 53.3338 74.6663 53.3338C75.3736 53.3338 76.0518 53.0529 76.5519 52.5528C77.052 52.0527 77.333 51.3744 77.333 50.6672V42.6672H114.666V50.6672C114.666 51.3744 114.947 52.0527 115.447 52.5528C115.947 53.0529 116.626 53.3338 117.333 53.3338C118.04 53.3338 118.718 53.0529 119.218 52.5528C119.718 52.0527 119.999 51.3744 119.999 50.6672V42.6672H133.333V136C133.343 138.895 134.304 141.706 136.069 144H90.6662V133.333ZM154.666 136C154.666 138.122 153.823 140.157 152.323 141.657C150.823 143.157 148.788 144 146.666 144C144.544 144 142.509 143.157 141.009 141.657C139.509 140.157 138.666 138.122 138.666 136V42.6672H154.666V136Z" fill="white"/>
</svg>
